<svg xmlns="http://www.w3.org/2000/svg" width="100" height="100" viewBox="0 0 100 100" fill="none">
  <defs>
    <radialGradient id="body" cx="38%" cy="30%" r="65%">
      <stop offset="0%" stop-color="#ffffff"/>
      <stop offset="60%" stop-color="#f8f4f0"/>
      <stop offset="100%" stop-color="#ede5db"/>
    </radialGradient>
    <linearGradient id="bg" x1="0" y1="0" x2="100" y2="100" gradientUnits="userSpaceOnUse">
      <stop offset="0%" stop-color="#F9D4C8"/>
      <stop offset="50%" stop-color="#C9EAE7"/>
      <stop offset="100%" stop-color="#D4C5F0"/>
    </linearGradient>
  </defs>
  <rect width="100" height="100" rx="25" fill="url(#bg)"/>
  <!-- 左腕 -->
  <ellipse cx="20" cy="64" rx="11" ry="15" fill="url(#body)" transform="rotate(-22 20 64)"/>
  <!-- 右腕 -->
  <ellipse cx="80" cy="64" rx="11" ry="15" fill="url(#body)" transform="rotate(22 80 64)"/>
  <!-- 胴体 -->
  <ellipse cx="50" cy="50" rx="30" ry="33" fill="url(#body)"/>
  <!-- 左足 -->
  <ellipse cx="38" cy="83" rx="12" ry="8" fill="url(#body)"/>
  <!-- 右足 -->
  <ellipse cx="62" cy="83" rx="12" ry="8" fill="url(#body)"/>
  <!-- ほっぺ -->
  <ellipse cx="33" cy="55" rx="8" ry="5.5" fill="#F4A0A0" fill-opacity="0.38"/>
  <ellipse cx="67" cy="55" rx="8" ry="5.5" fill="#F4A0A0" fill-opacity="0.38"/>
  <!-- 目 -->
  <circle cx="41" cy="44" r="3.8" fill="#1a1a1a"/>
  <circle cx="59" cy="44" r="3.8" fill="#1a1a1a"/>
  <!-- 口 -->
  <path d="M 43 54 Q 50 62 57 54" stroke="#1a1a1a" stroke-width="2.2" fill="none" stroke-linecap="round"/>
  <!-- カレンダー -->
  <rect x="35" y="60" width="30" height="23" rx="3.5" fill="white" fill-opacity="0.92" stroke="#ddd4cc" stroke-width="0.8"/>
  <rect x="35" y="60" width="30" height="5.5" rx="3.5" fill="#ede5da" fill-opacity="0.9"/>
  <rect x="35" y="64" width="30" height="1.5" fill="#ede5da" fill-opacity="0.9"/>
  <line x1="45" y1="65.5" x2="45" y2="83" stroke="#ddd4cc" stroke-width="0.7"/>
  <line x1="55" y1="65.5" x2="55" y2="83" stroke="#ddd4cc" stroke-width="0.7"/>
  <line x1="35" y1="71" x2="65" y2="71" stroke="#ddd4cc" stroke-width="0.7"/>
  <line x1="35" y1="77" x2="65" y2="77" stroke="#ddd4cc" stroke-width="0.7"/>
  <!-- チェックマーク -->
  <path d="M 48 69.5 L 51.5 73.5 L 59 66" stroke="#7BC8C0" stroke-width="2.4" fill="none" stroke-linecap="round" stroke-linejoin="round"/>
</svg>
