<svg xmlns="http://www.w3.org/2000/svg" width="48" height="48" viewBox="0 0 48 48" fill="none">
  <defs>
    <linearGradient id="bg" x1="0" y1="0" x2="48" y2="48" gradientUnits="userSpaceOnUse">
      <stop offset="0%" stop-color="#F9D4C8"/>
      <stop offset="50%" stop-color="#C9EAE7"/>
      <stop offset="100%" stop-color="#D4C5F0"/>
    </linearGradient>
  </defs>
  <rect width="48" height="48" rx="12" fill="url(#bg)"/>
  <rect x="10" y="13" width="28" height="22" rx="4" fill="white" fill-opacity="0.85"/>
  <rect x="10" y="13" width="28" height="7" rx="4" fill="#F4847E" fill-opacity="0.9"/>
  <rect x="10" y="17" width="28" height="3" fill="#F4847E" fill-opacity="0.9"/>
  <line x1="19" y1="20" x2="19" y2="35" stroke="#e0d4c8" stroke-width="1"/>
  <line x1="28" y1="20" x2="28" y2="35" stroke="#e0d4c8" stroke-width="1"/>
  <line x1="10" y1="26" x2="38" y2="26" stroke="#e0d4c8" stroke-width="1"/>
  <line x1="10" y1="31" x2="38" y2="31" stroke="#e0d4c8" stroke-width="1"/>
  <rect x="11" y="21" width="7" height="4" rx="1" fill="#F4847E" fill-opacity="0.7"/>
  <rect x="20" y="21" width="7" height="4" rx="1" fill="#7BC8C0" fill-opacity="0.7"/>
  <rect x="29" y="21" width="8" height="4" rx="1" fill="#F5C355" fill-opacity="0.7"/>
  <rect x="11" y="27" width="7" height="3" rx="1" fill="#A48FD0" fill-opacity="0.7"/>
  <rect x="20" y="27" width="7" height="3" rx="1" fill="#F4847E" fill-opacity="0.7"/>
  <rect x="29" y="27" width="8" height="3" rx="1" fill="#7BC8C0" fill-opacity="0.7"/>
</svg>
